<svg width="24" height="24" viewBox="0 0 24 24" fill="none" xmlns="http://www.w3.org/2000/svg">
<path d="M13.1329 8.9957L9.63724 13.0292C9.57047 13.1062 9.60043 13.2261 9.69558 13.2627L11.5312 13.9688L10.3469 17.7851C10.299 17.9392 10.4983 18.0467 10.6008 17.9222L14.3703 13.345C14.4341 13.2675 14.4033 13.1503 14.3096 13.1143L12.4688 12.4062L13.3856 9.13167C13.428 8.9805 13.2357 8.87707 13.1329 8.9957Z" fill="#202837"/>
<path fill-rule="evenodd" clip-rule="evenodd" d="M9 3.5C9 2.94772 9.44772 2.5 10 2.5H14C14.5523 2.5 15 2.94772 15 3.5V5.5H17C17.5523 5.5 18 5.94772 18 6.5V20.5C18 21.0523 17.5523 21.5 17 21.5H7C6.44772 21.5 6 21.0523 6 20.5V6.5C6 5.94772 6.44772 5.5 7 5.5H9V3.5ZM13 4.5V5.5H11V4.5H13ZM16 7.5H8V19.5H16V7.5Z" fill="#202837"/>
</svg>
