<svg width="24" height="24" viewBox="0 0 24 24" fill="none" xmlns="http://www.w3.org/2000/svg">
<path fill-rule="evenodd" clip-rule="evenodd" d="M6 4C6 3.44772 6.44772 3 7 3H17C17.5523 3 18 3.44772 18 4V11H19V9.5C19 9.22386 19.2239 9 19.5 9H20.5C20.7761 9 21 9.22386 21 9.5V15V15.5C21 15.7761 20.7761 16 20.5 16H20H18V20C18 20.5523 17.5523 21 17 21H7C6.44772 21 6 20.5523 6 20V16H4H3.5C3.22386 16 3 15.7761 3 15.5V15V9.5C3 9.22386 3.22386 9 3.5 9H4.5C4.77614 9 5 9.22386 5 9.5V11H6V4ZM6 13H5V14H6V13ZM18 14V13H19V14H18ZM8 5V6H16V5H8ZM8 16V8H16V16H8ZM8 18V19H16V18H8Z" fill="#202837"/>
</svg>
