<svg width="16" height="16" viewBox="0 0 16 16" fill="none" xmlns="http://www.w3.org/2000/svg">
<path d="M7.66666 11.4428C7.48256 11.4428 7.33332 11.2935 7.33332 11.1094L7.33332 4.71891L5.37376 6.67847C5.24359 6.80864 5.03253 6.80864 4.90236 6.67847L4.43096 6.20707C4.30078 6.07689 4.30078 5.86584 4.43096 5.73566L7.76429 2.40233C7.89446 2.27215 8.10552 2.27215 8.23569 2.40233L11.569 5.73566C11.6992 5.86584 11.6992 6.07689 11.569 6.20707L11.0976 6.67847C10.9674 6.80865 10.7564 6.80865 10.6262 6.67847L8.66666 4.71891L8.66666 11.1094C8.66666 11.2935 8.51742 11.4428 8.33332 11.4428L7.66666 11.4428Z" fill="#202837"/>
<path d="M2.33333 13.8333C2.14924 13.8333 2 13.684 2 13.4999V10.8333C2 10.6492 2.14924 10.4999 2.33333 10.4999H3C3.18409 10.4999 3.33333 10.6492 3.33333 10.8333V12.4999H12.6667V10.8333C12.6667 10.6492 12.8159 10.4999 13 10.4999H13.6667C13.8508 10.4999 14 10.6492 14 10.8333V13.4999C14 13.684 13.8508 13.8333 13.6667 13.8333H2.33333Z" fill="#202837"/>
</svg>
