<svg width="12" height="12" viewBox="0 0 12 12" fill="none" xmlns="http://www.w3.org/2000/svg">
<path d="M6.8841 2.99476L5.64666 4.2322C5.54903 4.32983 5.39073 4.32983 5.2931 4.2322L4.93955 3.87865C4.84192 3.78102 4.84192 3.62272 4.93955 3.52509L6.17699 2.28765C7.1533 1.31134 8.73622 1.31134 9.71253 2.28765C10.6888 3.26396 10.6888 4.84688 9.71253 5.82319L8.47509 7.06063C8.37746 7.15826 8.21916 7.15826 8.12153 7.06063L7.76798 6.70707C7.67035 6.60944 7.67035 6.45115 7.76798 6.35352L9.00542 5.11608C9.59121 4.53029 9.59121 3.58055 9.00542 2.99476C8.41963 2.40897 7.46989 2.40897 6.8841 2.99476Z" fill="#202837"/>
<path d="M3.52533 4.93931C3.62297 4.84168 3.78126 4.84168 3.87889 4.93931L4.23244 5.29286C4.33007 5.39049 4.33007 5.54878 4.23244 5.64641L2.99501 6.88385C2.40922 7.46963 2.40922 8.41938 2.99501 9.00517C3.58079 9.59096 4.53054 9.59096 5.11633 9.00517L6.35376 7.76774C6.4514 7.6701 6.60969 7.6701 6.70732 7.76774L7.06087 8.12129C7.1585 8.21892 7.1585 8.37721 7.06087 8.47484L5.82344 9.71228C4.84712 10.6886 3.26421 10.6886 2.2879 9.71227C1.31159 8.73596 1.31159 7.15305 2.2879 6.17674L3.52533 4.93931Z" fill="#202837"/>
<path d="M4.677 7.67674C4.77463 7.77437 4.93292 7.77437 5.03055 7.67674L7.677 5.03029C7.77463 4.93266 7.77463 4.77437 7.677 4.67674L7.32344 4.32318C7.22581 4.22555 7.06752 4.22555 6.96989 4.32318L4.32344 6.96963C4.22581 7.06726 4.22581 7.22555 4.32344 7.32318L4.677 7.67674Z" fill="#202837"/>
</svg>
