<svg width="12" height="12" viewBox="0 0 12 12" fill="none" xmlns="http://www.w3.org/2000/svg">
<path fill-rule="evenodd" clip-rule="evenodd" d="M4.875 7.25C6.18667 7.25 7.25 6.18668 7.25 4.875C7.25 3.56332 6.18667 2.5 4.875 2.5C3.56332 2.5 2.5 3.56332 2.5 4.875C2.5 6.18668 3.56332 7.25 4.875 7.25ZM4.875 8.25C5.62661 8.25 6.32084 8.00431 6.88175 7.58886L9.46966 10.1768C9.56729 10.2744 9.72559 10.2744 9.82322 10.1768L10.1768 9.82322C10.2744 9.72559 10.2744 9.5673 10.1768 9.46967L7.58885 6.88175C8.0043 6.32084 8.24999 5.62661 8.24999 4.875C8.24999 3.01104 6.73896 1.5 4.875 1.5C3.01104 1.5 1.5 3.01104 1.5 4.875C1.5 6.73896 3.01104 8.25 4.875 8.25ZM3.25 5.125C3.25 5.26307 3.36193 5.375 3.5 5.375H6.25C6.38807 5.375 6.5 5.26307 6.5 5.125V4.625C6.5 4.48693 6.38807 4.375 6.25 4.375H3.5C3.36193 4.375 3.25 4.48693 3.25 4.625V5.125Z" fill="#202837"/>
</svg>
